<svg id="Layer_1" data-name="Layer 1" xmlns="http://www.w3.org/2000/svg" viewBox="0 0 127.3 30.72"><defs><style>.cls-1{fill:#544192;}</style></defs><title>claires-logo</title><path id="Logo-2" class="cls-1" d="M17.9,17.3A7.35,7.35,0,0,0,14,15.9a4.93,4.93,0,0,0-5.1,4.8v.2a5,5,0,0,0,4.8,5h.4a5.88,5.88,0,0,0,3.7-1.4v6a11.87,11.87,0,0,1-5.2,1.1C6.4,31.6,1.2,27.1,1.2,21c0-6.5,5.2-11,11.7-11a10.44,10.44,0,0,1,4.9,1.2C17.9,11.2,17.9,17.3,17.9,17.3Zm9.7,13.6H20.2V1.1h7.4Zm14-14.7a4.55,4.55,0,0,1,4.8,4.2v.4a4.46,4.46,0,0,1-4.3,4.6h-.5a4.46,4.46,0,0,1-4.8-4v-.5a4.54,4.54,0,0,1,4.4-4.6c.1-.1.2-.1.4-.1Zm11.9-5.5H46.1v1.9A8.82,8.82,0,0,0,39.6,10,10.48,10.48,0,0,0,29.1,20.4v.3A10.59,10.59,0,0,0,39.4,31.5h.2c2.4,0,5-.9,6.3-3H46v2.2h7.4l.1-20ZM63.8,30.9H56.4V10.7h7.4Zm.4-26a4.15,4.15,0,0,1-8.3,0A4.08,4.08,0,0,1,60.3,1,4.28,4.28,0,0,1,64.2,4.9ZM74,14h0a7.64,7.64,0,0,1,6.8-3.6h1.4v6.9a6.83,6.83,0,0,0-3.2-.7c-4.1,0-5.2,2.6-5.2,6.1v8.1H66.4V10.7h7.4L74,14Zm16.2,3.9a4.49,4.49,0,0,1,8.6,0Zm15.6,3.4c0-6.9-4.2-11.2-11.5-11.2-6.8,0-11.6,4.1-11.6,10.8,0,7,5.2,10.8,12.1,10.8,4.8,0,9.5-2.1,10.7-6.9H98.4a3.83,3.83,0,0,1-3.6,1.8c-3.1,0-4.7-1.5-4.7-4.5h15.7v-.8ZM116,2.4l-6.5,11.9h-4.8l4.4-11.9Zm7.9,13.5a10.72,10.72,0,0,0-4-1c-.8,0-2.3.4-2.3,1.4,0,1.4,2.3,1.5,3.4,1.7,3.5.6,6.1,2.2,6.1,6,0,5.3-5,7.5-9.9,7.5a16.31,16.31,0,0,1-8.4-2.3l2.6-5a12.23,12.23,0,0,0,5.9,2c.9,0,2.3-.4,2.3-1.5,0-1.6-2.3-1.6-4.7-2.2s-4.7-1.7-4.7-5.3c0-5,4.7-7.1,9.3-7.1a18.37,18.37,0,0,1,6.9,1.3Zm3.5-3.6a.91.91,0,0,1,.7.3.85.85,0,0,1,0,1.3h0a1,1,0,0,1-1.4,0,.91.91,0,0,1-.3-.7,1.08,1.08,0,0,1,.3-.7.84.84,0,0,1,.7-.2Zm1.1.9a1.14,1.14,0,0,0-.3-.8,1.21,1.21,0,0,0-1.6,0,1.22,1.22,0,0,0,0,1.6,1.21,1.21,0,0,0,1.6,0,1.14,1.14,0,0,0,.3-.8Zm-.8-.2c0,.1,0,.2-.1.2h-.4v-.5h.5V13Zm-.8-.4v1.2h.2v-.5h.4a.37.37,0,0,1,.1.3v.1h.2v-.3c0-.1,0-.1-.1-.2s-.1-.1-.2-.1c.1,0,.1,0,.2-.1s.1-.1.1-.2-.1-.3-.2-.3-.2-.1-.3,0l-.4.1Z" transform="translate(-1.2 -0.98)"/></svg>